<svg width="21" height="20" viewBox="0 0 21 20" fill="none" xmlns="http://www.w3.org/2000/svg">
<path d="M17.2676 14.9141C16.8991 14.0414 16.3645 13.2486 15.6933 12.5801C15.0243 11.9096 14.2317 11.375 13.3594 11.0059C13.3516 11.002 13.3437 11 13.3359 10.9961C14.5527 10.1172 15.3437 8.68555 15.3437 7.07031C15.3437 4.39453 13.1758 2.22656 10.5 2.22656C7.82421 2.22656 5.65624 4.39453 5.65624 7.07031C5.65624 8.68555 6.44725 10.1172 7.66405 10.998C7.65624 11.002 7.64843 11.0039 7.64061 11.0078C6.76561 11.377 5.98046 11.9062 5.30663 12.582C4.63614 13.2511 4.10156 14.0437 3.73241 14.916C3.36976 15.77 3.17417 16.6856 3.15624 17.6133C3.15572 17.6341 3.15937 17.6549 3.16699 17.6743C3.17461 17.6937 3.18604 17.7114 3.2006 17.7263C3.21516 17.7412 3.23256 17.7531 3.25178 17.7612C3.27099 17.7693 3.29164 17.7734 3.31249 17.7734H4.48436C4.5703 17.7734 4.63866 17.7051 4.64061 17.6211C4.67968 16.1133 5.28514 14.7012 6.35546 13.6309C7.46288 12.5234 8.93358 11.9141 10.5 11.9141C12.0664 11.9141 13.5371 12.5234 14.6445 13.6309C15.7148 14.7012 16.3203 16.1133 16.3594 17.6211C16.3613 17.707 16.4297 17.7734 16.5156 17.7734H17.6875C17.7083 17.7734 17.729 17.7693 17.7482 17.7612C17.7674 17.7531 17.7848 17.7412 17.7994 17.7263C17.8139 17.7114 17.8254 17.6937 17.833 17.6743C17.8406 17.6549 17.8443 17.6341 17.8437 17.6133C17.8242 16.6797 17.6308 15.7715 17.2676 14.9141ZM10.5 10.4297C9.6035 10.4297 8.75975 10.0801 8.12499 9.44531C7.49022 8.81055 7.14061 7.9668 7.14061 7.07031C7.14061 6.17383 7.49022 5.33008 8.12499 4.69531C8.75975 4.06055 9.6035 3.71094 10.5 3.71094C11.3965 3.71094 12.2402 4.06055 12.875 4.69531C13.5098 5.33008 13.8594 6.17383 13.8594 7.07031C13.8594 7.9668 13.5098 8.81055 12.875 9.44531C12.2402 10.0801 11.3965 10.4297 10.5 10.4297Z" fill="white"/>
</svg>
