<svg width="192" height="23" viewBox="0 0 192 23" fill="none" xmlns="http://www.w3.org/2000/svg">
<path d="M0.17 0.547999C2.56733 0.382665 4.67533 0.299999 6.494 0.299999C11.6193 0.299999 14.182 2.10833 14.182 5.725C14.182 7.399 13.748 8.86633 12.88 10.127C12.4253 10.809 11.7227 11.3567 10.772 11.77C9.82133 12.1627 8.67433 12.359 7.331 12.359H2.743V22H0.17V0.547999ZM6.525 0.609998C5.32633 0.609998 4.06567 0.682332 2.743 0.826999V12.049H7.331C10.245 11.925 11.702 9.83767 11.702 5.787C11.702 4.13367 11.268 2.86267 10.4 1.974C9.532 1.06467 8.24033 0.609998 6.525 0.609998ZM18.2348 0.547999C20.6321 0.382665 22.7504 0.299999 24.5898 0.299999C29.6944 0.299999 32.2468 2.005 32.2468 5.415C32.2468 6.86167 31.8954 8.15333 31.1928 9.29C30.4901 10.4267 29.2811 11.181 27.5658 11.553L33.7658 22H30.8828L24.8068 11.739H20.8078V22H18.2348V0.547999ZM24.5898 0.609998C23.3911 0.609998 22.1304 0.682332 20.8078 0.826999V11.429H25.3958C28.3098 11.305 29.7668 9.321 29.7668 5.477C29.7668 3.90633 29.3328 2.70767 28.4648 1.881C27.5968 1.03366 26.3051 0.609998 24.5898 0.609998ZM36.2245 11.677C36.2245 7.91567 37.1338 5.06367 38.9525 3.121C40.7918 1.15767 43.1478 0.175998 46.0205 0.175998C48.8931 0.175998 51.1768 1.02333 52.8715 2.718C54.5868 4.41267 55.4445 7.12 55.4445 10.84C55.4445 14.56 54.5351 17.3707 52.7165 19.272C50.8978 21.1733 48.4695 22.124 45.4315 22.124C42.8068 22.124 40.6575 21.3697 38.9835 19.861C38.1155 19.0757 37.4335 17.9907 36.9375 16.606C36.4621 15.2007 36.2245 13.5577 36.2245 11.677ZM45.9275 0.486C43.8401 0.486 42.1248 1.416 40.7815 3.276C39.4588 5.136 38.7975 7.864 38.7975 11.46C38.7975 15.056 39.4278 17.6807 40.6885 19.334C41.9491 20.9873 43.6231 21.814 45.7105 21.814C47.8185 21.814 49.5338 20.884 50.8565 19.024C52.1998 17.1433 52.8715 14.4257 52.8715 10.871C52.8715 7.29567 52.2308 4.671 50.9495 2.997C49.6888 1.323 48.0148 0.486 45.9275 0.486ZM72.1212 0.299999V0.609998H62.3562V10.53H71.4082V10.84H62.3562V22H59.7832V0.299999H72.1212ZM76.3041 0.609998V0.299999H81.8221V0.609998H80.3031V21.69H81.8221V22H76.3041V21.69H77.7301V0.609998H76.3041ZM93.7992 22H91.2262V0.609998H85.8632V0.299999H99.1932V0.609998H93.7992V22ZM113.429 22.124C109.565 22.124 106.702 21.0287 104.842 18.838C104.181 18.0527 103.644 17.009 103.23 15.707C102.817 14.405 102.61 12.824 102.61 10.964C102.61 9.104 102.91 7.44033 103.509 5.973C104.129 4.485 104.966 3.338 106.02 2.532C108.066 1.02333 110.536 0.268999 113.429 0.268999C114.256 0.268999 115.062 0.341333 115.847 0.486C116.633 0.609999 117.222 0.744332 117.614 0.888998L118.172 1.106L118.079 1.416C116.674 0.857999 115.124 0.578999 113.429 0.578999C111.239 0.578999 109.41 1.292 107.942 2.718C106.826 3.772 106.041 5.322 105.586 7.368C105.318 8.52533 105.183 9.941 105.183 11.615C105.183 13.289 105.421 14.839 105.896 16.265C106.372 17.6703 106.909 18.714 107.508 19.396C108.128 20.078 108.872 20.6257 109.74 21.039C110.608 21.4317 111.301 21.659 111.817 21.721C112.334 21.783 112.954 21.814 113.677 21.814C114.421 21.814 115.258 21.7417 116.188 21.597C117.118 21.4523 117.821 21.318 118.296 21.194L119.009 20.977L119.102 21.287C117.532 21.845 115.641 22.124 113.429 22.124ZM135.631 0.299999V0.609998H125.866V9.91H134.918V10.22H125.866V21.69H136.313V22H123.293V0.299999H135.631ZM140.758 22H140.355V0.299999H141.409L154.305 20.357V0.299999H154.708V22H152.445L140.758 4.02V22ZM166.512 22H163.939V0.609998H158.576V0.299999H171.906V0.609998H166.512V22ZM175.944 0.547999C178.341 0.382665 180.459 0.299999 182.299 0.299999C187.403 0.299999 189.956 2.005 189.956 5.415C189.956 6.86167 189.604 8.15333 188.902 9.29C188.199 10.4267 186.99 11.181 185.275 11.553L191.475 22H188.592L182.516 11.739H178.517V22H175.944V0.547999ZM182.299 0.609998C181.1 0.609998 179.839 0.682332 178.517 0.826999V11.429H183.105C186.019 11.305 187.476 9.321 187.476 5.477C187.476 3.90633 187.042 2.70767 186.174 1.881C185.306 1.03366 184.014 0.609998 182.299 0.609998Z" fill="white"/>
</svg>
