<svg width="0" height="0" class="hidden">
  <symbol xmlns="http://www.w3.org/2000/svg" viewBox="0 0 64 64" id="methods-earning">
    <g id="Pay_Per_Clink">
      <path d="M56.69,49.64H60a1,1,0,0,0,1-1V10.84a1,1,0,0,0-1-1H4a1,1,0,0,0-1,1v37.8a1,1,0,0,0,1,1H43a7.44,7.44,0,0,0,13.69,0ZM48.85,37a7.47,7.47,0,0,0-4.45,2.31V38.12a5.45,5.45,0,0,1,4.45-5.35Zm2-4.2a5.45,5.45,0,0,1,4.44,5.35v1.17A7.34,7.34,0,0,0,50.85,37ZM5,47.64V11.84H59v35.8H57.23a7.14,7.14,0,0,0,.06-.93V38.12a7.45,7.45,0,0,0-6.44-7.37V26.83a4.27,4.27,0,0,0-8.53,0v.66a2.23,2.23,0,0,1-2.22,2.23,2.24,2.24,0,0,1-2.22-2.23V14.89a1,1,0,0,0-2,0v12.6a4.22,4.22,0,1,0,8.44,0v-.66a2.27,2.27,0,0,1,4.53,0v3.92a7.45,7.45,0,0,0-6.45,7.37v8.59c0,.32,0,.62.06.93Zm44.85,4.52a5.45,5.45,0,0,1-5.45-5.45V44.33a5.45,5.45,0,0,1,10.89,0v2.36A5.45,5.45,0,0,1,49.85,52.16Z"></path>
      <path d="M15.32,30.32a8.64,8.64,0,1,0-8.64-8.63A8.64,8.64,0,0,0,15.32,30.32Zm0-15.27a6.64,6.64,0,1,1-6.64,6.64A6.65,6.65,0,0,1,15.32,15.05Z"></path>
      <path d="M25.27,32.38H10.64a2.75,2.75,0,0,0,0,5.5H25.27a2.75,2.75,0,1,0,0-5.5Zm0,3.5H10.64a.75.75,0,0,1,0-1.5H25.27a.75.75,0,1,1,0,1.5Z"></path>
      <path d="M15.32,22.69a.64.64,0,0,1,0,1.28h0a.68.68,0,0,1-.44-.19,1,1,0,0,0-1.41,0,1,1,0,0,0,0,1.42,2.63,2.63,0,0,0,.87.57V26a1,1,0,0,0,2,0v-.26a2.64,2.64,0,0,0-1-5.08.64.64,0,0,1,0-1.28.63.63,0,0,1,.45.18,1,1,0,0,0,1.41-1.41,2.61,2.61,0,0,0-.86-.58v-.26a1,1,0,1,0-2,0v.27a2.64,2.64,0,0,0,1,5.08Z"></path>
      <path d="M25.27,40.11H10.64a2.75,2.75,0,0,0,0,5.49H25.27a2.75,2.75,0,1,0,0-5.49Zm0,3.49H10.64a.74.74,0,0,1-.74-.74.75.75,0,0,1,.74-.75H25.27a.75.75,0,0,1,.75.75A.74.74,0,0,1,25.27,43.6Z"></path>
    </g>
  </symbol>
  <symbol xmlns="http://www.w3.org/2000/svg" viewBox="0 0 64 64" id="other">
    <g id="Target-2">
      <path d="M60,8.59a1,1,0,0,0,0-2H57.41V4a1,1,0,0,0-2,0V7.18l-.8.8V4a1,1,0,0,0-2,0v6l-.84.83a29,29,0,1,0,1.42,1.42l.84-.84h6a1,1,0,0,0,0-2H56l.79-.8ZM59,32a27,27,0,1,1-8.64-19.77l-3,3a22.75,22.75,0,1,0,1.42,1.42l3-3A26.91,26.91,0,0,1,59,32ZM34.74,32A2.74,2.74,0,1,1,32,29.26a2.63,2.63,0,0,1,1.09.24l-1.8,1.79a1,1,0,0,0,1.42,1.42l1.8-1.8A2.8,2.8,0,0,1,34.74,32Zm-.18-4A4.78,4.78,0,1,0,36,29.44l2.63-2.63a8.44,8.44,0,1,1-1.41-1.41ZM38.62,24A10.42,10.42,0,1,0,40,25.38l3-3A14.61,14.61,0,1,1,41.64,21Zm4.43-4.43A16.74,16.74,0,1,0,44.46,21l2.87-2.86a20.8,20.8,0,1,1-1.42-1.42Z"></path>
    </g>
  </symbol>
  <symbol xmlns="http://www.w3.org/2000/svg" viewBox="0 0 64 64" id="payments">
    <g id="Automated_Teller_Machine">
      <path d="M58.56,14.27H39.11V4a1,1,0,0,0-1-1H5.44a1,1,0,0,0-1,1V50.67a1,1,0,0,0,1,1H24.55V60a1,1,0,0,0,1,1h33a1,1,0,0,0,1-1V15.27A1,1,0,0,0,58.56,14.27Zm-21.45,0H31.47V5h5.64ZM6.44,5h23V49.67h-23ZM26.55,51.67h3.92a1,1,0,0,0,1-1h0V16.27h1.82V59H26.55ZM35.29,59V16.27h1.82V59Zm22.27,0H39.11V16.27H57.56Z"></path>
      <path d="M51.35,37.64a4.08,4.08,0,0,0-4.07,4.07V53.9a4.07,4.07,0,0,0,8.14,0V41.71A4.07,4.07,0,0,0,51.35,37.64ZM53.42,53.9a2.07,2.07,0,0,1-4.14,0V41.71a2.07,2.07,0,0,1,4.14,0Z"></path>
      <path d="M46.55,22.59h.26a2.64,2.64,0,0,0,5.09-1,.64.64,0,0,1,.64-.64.63.63,0,0,1,.63.63h0v0A.58.58,0,0,1,53,22a1,1,0,0,0,1.42,1.42,2.63,2.63,0,0,0,.57-.87h.26a1,1,0,0,0,0-2H55a2.64,2.64,0,0,0-5.08,1,.64.64,0,0,1-1.28,0,.63.63,0,0,1,.18-.45,1,1,0,0,0,0-1.42,1,1,0,0,0-1.41,0,2.61,2.61,0,0,0-.58.86h-.26a1,1,0,0,0,0,2Z"></path>
      <path d="M8.76,20.67H26.84a1,1,0,0,0,1-1V9.55a1,1,0,0,0-1-1H8.76a1,1,0,0,0-1,1V19.67A1,1,0,0,0,8.76,20.67Zm1-10.12H25.84v8.12H9.76Z"></path>
      <path d="M26.84,48a1,1,0,0,0,1-1V27a1,1,0,0,0-1-1H8.76a1,1,0,0,0-1,1V47a1,1,0,0,0,1,1ZM9.76,34.59h3.66v4.76H9.76Zm5.66,0h4.76v4.76H15.42Zm0-2V28h4.76v4.62Zm10.42,6.76H22.18V34.59h3.66Zm-5.66,2V46H15.42V41.35Zm2,4.61V41.35h3.66V46Zm3.66-13.37H22.18V28h3.66ZM13.42,28v4.62H9.76V28ZM9.76,41.35h3.66V46H9.76Z"></path>
    </g>
  </symbol>
  <symbol xmlns="http://www.w3.org/2000/svg" viewBox="0 0 64 64" id="promotion-methods">
    <g id="Graph">
      <path d="M60,51.81H57.67V23.65a1,1,0,0,0-1-1H48.44a1,1,0,0,0-1,1v3H40.22a1,1,0,0,0-1,1v3H32a1,1,0,0,0-1,1v3H23.78a1,1,0,0,0-1,1v3H15.56a1,1,0,0,0-1,1v3H7.33a1,1,0,0,0-1,1v8.16H4a1,1,0,0,0-1,1v3.93a1,1,0,0,0,1,1H60a1,1,0,0,0,1-1V52.81A1,1,0,0,0,60,51.81ZM55.67,24.65V51.81H49.44V27.65h0v-3Zm-14.45,4h6.22V51.81H41.22Zm-8.22,4h6.22V51.81H33Zm-2,4V51.81H24.78V39.65h0v-3Zm-14.44,4h6.22V51.81H16.56Zm-8.23,4h6.23v7.16H8.33ZM59,55.74H5V53.81H59Z"></path>
      <path d="M5,35.89a2.73,2.73,0,0,0,3.73,1L37,20.55l-.27,1A2.66,2.66,0,0,0,41.9,22.9l2-7.28a2.63,2.63,0,0,0-.28-2h0A2.67,2.67,0,0,0,42,12.36l-7.28-1.95a2.65,2.65,0,0,0-3.26,1.88,2.67,2.67,0,0,0,1.88,3.27l1,.26L6,32.15A2.73,2.73,0,0,0,5,35.89Zm2-2L37.37,16.34a1,1,0,0,0-.24-1.83l-3.3-.89a.65.65,0,0,1-.47-.81.66.66,0,0,1,.81-.47l7.28,1.95a.66.66,0,0,1,.47.82l-2,7.27A.66.66,0,1,1,38.69,22l.88-3.3a1,1,0,0,0-.36-1,1,1,0,0,0-1.1-.08L7.72,35.16A.74.74,0,0,1,7,33.88Z"></path>
      <path d="M52.14,6.26a1,1,0,0,0-1,1v.38a2.83,2.83,0,0,0,1,5.48A.84.84,0,0,1,53,14a.83.83,0,0,1-.82.83h0a.76.76,0,0,1-.57-.24A1,1,0,0,0,50.14,16a2.8,2.8,0,0,0,1,.64V17a1,1,0,0,0,2,0V16.6a2.83,2.83,0,0,0-1-5.48.83.83,0,0,1-.83-.83.83.83,0,0,1,1.43-.59,1,1,0,0,0,1.41,0,1,1,0,0,0,0-1.42,2.76,2.76,0,0,0-1-.64V7.26A1,1,0,0,0,52.14,6.26Z"></path>
    </g>
  </symbol>
  <symbol xmlns="http://www.w3.org/2000/svg" viewBox="0 0 64 64" id="about-us">
    <g id="Data">
      <path d="M52.65,10.07H44.54V8a1,1,0,0,0-1-1h-3.1V4a1,1,0,0,0-1-1H24.56a1,1,0,0,0-1,1V7h-3.1a1,1,0,0,0-1,1v2.08H11.35a1,1,0,0,0-1,1V60a1,1,0,0,0,1,1h41.3a1,1,0,0,0,1-1V11.07A1,1,0,0,0,52.65,10.07ZM38.44,5V9.17H25.56V8h0V5ZM23.56,9v1.18a1,1,0,0,0,1,1H39.44a1,1,0,0,0,1-1V9h2.1v2.08h0V15H21.46V11.07h0V9Zm-4.1,3.08V16a1,1,0,0,0,1,1H43.54a1,1,0,0,0,1-1V12.07H46.7V53.52H17.3V12.07ZM51.65,59H12.35V12.07h3V54.52a1,1,0,0,0,1,1H47.7a1,1,0,0,0,1-1V12.07h2.95Z"></path>
      <path d="M21.36,22.58h10a1,1,0,0,0,0-2h-10a1,1,0,0,0,0,2Z"></path>
      <path d="M35.76,22.58h6.88a1,1,0,0,0,0-2H35.76a1,1,0,0,0,0,2Z"></path>
      <path d="M21.36,26.44H25.5a1,1,0,0,0,0-2H21.36a1,1,0,0,0,0,2Z"></path>
      <path d="M43.64,25.44a1,1,0,0,0-1-1H29.87a1,1,0,0,0,0,2H42.64A1,1,0,0,0,43.64,25.44Z"></path>
      <path d="M21.36,30.3h10a1,1,0,0,0,0-2h-10a1,1,0,0,0,0,2Z"></path>
      <path d="M35.76,30.3h6.88a1,1,0,0,0,0-2H35.76a1,1,0,0,0,0,2Z"></path>
      <path d="M21.36,34.17H25.5a1,1,0,0,0,0-2H21.36a1,1,0,0,0,0,2Z"></path>
      <path d="M28.87,33.17a1,1,0,0,0,1,1H42.64a1,1,0,0,0,0-2H29.87A1,1,0,0,0,28.87,33.17Z"></path>
      <path d="M21.36,38h10a1,1,0,0,0,0-2h-10a1,1,0,0,0,0,2Z"></path>
      <path d="M42.64,36H35.76a1,1,0,1,0,0,2h6.88a1,1,0,0,0,0-2Z"></path>
      <path d="M29.64,45.14H25.39a1,1,0,0,0-1,1v4.94a1,1,0,0,0,1,1h4.25a1,1,0,0,0,1-1V46.14A1,1,0,0,0,29.64,45.14Zm-1,4.94H26.39V47.14h2.25Z"></path>
      <path d="M37.11,43H32.86a1,1,0,0,0-1,1v7.06a1,1,0,0,0,1,1h4.25a1,1,0,0,0,1-1V44A1,1,0,0,0,37.11,43Zm-1,7.06H33.86V45h2.25Z"></path>
      <path d="M39.34,41.83v9.25a1,1,0,0,0,1,1h4.25a1,1,0,0,0,1-1V41.83a1,1,0,0,0-1-1H40.34A1,1,0,0,0,39.34,41.83Zm2,1h2.25v7.25H41.34Z"></path>
    </g>
  </symbol>
  <symbol id="account-profile" xmlns="http://www.w3.org/2000/svg" viewBox="0 0 64 64">
    <path d="M58.08,29.08h-.64A25.44,25.44,0,0,0,34.92,6.56V5.92a2.92,2.92,0,0,0-5.84,0v.64A25.45,25.45,0,0,0,6.56,29.08H5.92a2.92,2.92,0,0,0,0,5.84h.64A25.45,25.45,0,0,0,29.08,57.44v.64a2.92,2.92,0,0,0,5.84,0v-.64A25.45,25.45,0,0,0,57.44,34.92h.64a2.92,2.92,0,0,0,0-5.84Zm-2.63,0H54.08A22.28,22.28,0,0,0,34.92,9.92V8.55A23.47,23.47,0,0,1,55.45,29.08Zm-4.69,5.84H52A20.24,20.24,0,0,1,34.92,52V50.76a2.92,2.92,0,0,0-5.84,0V52A20.24,20.24,0,0,1,12,34.92h1.28a2.92,2.92,0,0,0,0-5.84H12A20.24,20.24,0,0,1,29.08,12v1.28a2.92,2.92,0,0,0,5.84,0V12A20.24,20.24,0,0,1,52,29.08H50.76a2.92,2.92,0,1,0,0,5.84ZM32,5a.92.92,0,0,1,.92.92V7.43h0v3.37h0v2.42a.92.92,0,1,1-1.84,0V10.82h0V7.44h0V5.92A.91.91,0,0,1,32,5ZM29.08,8.55V9.92A22.28,22.28,0,0,0,9.92,29.08H8.55A23.47,23.47,0,0,1,29.08,8.55ZM5,32a.92.92,0,0,1,.92-.92h7.32a.92.92,0,0,1,0,1.84H5.92A.92.92,0,0,1,5,32Zm3.55,2.92H9.92A22.28,22.28,0,0,0,29.08,54.08v1.37A23.49,23.49,0,0,1,8.55,34.92ZM32,59a.91.91,0,0,1-.92-.92V56.57h0V53.19h0V50.76a.92.92,0,1,1,1.84,0v2.42h0v3.38h0v1.52A.92.92,0,0,1,32,59Zm2.92-3.55V54.08A22.28,22.28,0,0,0,54.08,34.92h1.37A23.48,23.48,0,0,1,34.92,55.45ZM58.08,32.92H50.76a.92.92,0,0,1,0-1.84h7.32a.92.92,0,0,1,0,1.84Z"></path>
    <path d="M32,17.76A14.24,14.24,0,1,0,46.24,32,14.26,14.26,0,0,0,32,17.76Zm0,2A12.21,12.21,0,0,1,42.33,38.53a12.32,12.32,0,0,0-20.66,0A12.21,12.21,0,0,1,32,19.76Zm0,24.48a12.19,12.19,0,0,1-9-4,10.27,10.27,0,0,1,18,0A12.19,12.19,0,0,1,32,44.24Z"></path>
    <path d="M32,31.08a4.93,4.93,0,1,0-4.92-4.92A4.93,4.93,0,0,0,32,31.08Zm0-7.85a2.93,2.93,0,1,1-2.92,2.93A2.93,2.93,0,0,1,32,23.23Z"></path>
  </symbol>
  <symbol xmlns="http://www.w3.org/2000/svg" viewBox="0 0 64 64" id="affiliate-program">
    <g id="Networking">
      <path d="M32,25.07a3.59,3.59,0,1,0,3.59,3.59A3.59,3.59,0,0,0,32,25.07Zm0,5.18a1.59,1.59,0,1,1,1.59-1.59A1.59,1.59,0,0,1,32,30.25Z"></path>
      <path d="M55.07,26.07A5.92,5.92,0,0,0,49.23,31H42.76a10.77,10.77,0,0,0-2.45-5.9l4.58-4.58a5.91,5.91,0,0,0,7.62-.64,6,6,0,0,0,0-8.39h0a5.93,5.93,0,0,0-9,7.62L38.9,23.69A10.77,10.77,0,0,0,33,21.24V14.77a5.93,5.93,0,1,0-2,0v6.47a10.77,10.77,0,0,0-5.9,2.45l-4.57-4.58a5.83,5.83,0,0,0,1.09-3.42,5.93,5.93,0,1,0-5.93,5.93,6,6,0,0,0,3.42-1.1l4.58,4.58A10.77,10.77,0,0,0,21.24,31H14.78a5.93,5.93,0,1,0,0,2h6.46a10.77,10.77,0,0,0,2.45,5.9l-4.58,4.58a5.92,5.92,0,1,0,2.51,4.83,5.83,5.83,0,0,0-1.09-3.42l4.57-4.58A10.77,10.77,0,0,0,31,42.76v6.47a5.93,5.93,0,1,0,2,0V42.76a10.77,10.77,0,0,0,5.9-2.45l4.58,4.58a5.93,5.93,0,1,0,1.41-1.41L40.31,38.9A10.77,10.77,0,0,0,42.76,33h6.47a5.93,5.93,0,1,0,5.84-6.93ZM45.53,12.91a3.94,3.94,0,0,1,5.56,0h0a3.93,3.93,0,1,1-5.56,5.56h0A3.94,3.94,0,0,1,45.53,12.91Zm-17.46-4A3.93,3.93,0,1,1,32,12.86,3.93,3.93,0,0,1,28.07,8.93ZM12.91,18.47a3.93,3.93,0,1,1,5.56,0h0A3.94,3.94,0,0,1,12.91,18.47Zm-4,17.46A3.93,3.93,0,1,1,12.87,32,3.94,3.94,0,0,1,8.93,35.93ZM32,40.81a8.8,8.8,0,0,1-5.67-2.08,6.44,6.44,0,0,1,11.34,0A8.8,8.8,0,0,1,32,40.81ZM18.47,51.09a3.93,3.93,0,1,1,0-5.56h0a3.94,3.94,0,0,1,0,5.56Zm17.46,4A3.93,3.93,0,1,1,32,51.14,3.93,3.93,0,0,1,35.93,55.07Zm15.16-9.54a3.93,3.93,0,1,1-5.56,0h0a3.94,3.94,0,0,1,5.56,0Zm-12-8.33a8.44,8.44,0,0,0-14.18,0A8.76,8.76,0,0,1,23.19,32h0a8.81,8.81,0,1,1,15.9,5.21Zm16-1.27A3.93,3.93,0,0,1,51.14,32h0a3.93,3.93,0,1,1,3.93,3.93Z"></path>
    </g>
  </symbol>
  <symbol xmlns="http://www.w3.org/2000/svg" viewBox="0 0 64 64" id="blogging">
    <g id="Brochure">
      <path d="M60.31,14.09,41.64,8A1.44,1.44,0,0,0,41,8L22.67,14,4.31,8a1,1,0,0,0-.9.15A1,1,0,0,0,3,9V49a1,1,0,0,0,.69.95L22.36,56h0A1.06,1.06,0,0,0,23,56h0l18.35-6,18.36,6A1.1,1.1,0,0,0,60,56a1,1,0,0,0,1-1V15A1,1,0,0,0,60.31,14.09ZM5,10.33l16.67,5.44v37.9L5,48.23Zm18.67,5.44,16.66-5.44v37.9L23.67,53.67ZM59,53.67,42.33,48.23V10.33L59,15.77Z"></path>
      <path d="M45,32.58l10.72,3.49a.84.84,0,0,0,.31,0,1,1,0,0,0,.59-.19,1,1,0,0,0,.41-.81V17.93a1,1,0,0,0-.69-1L45.62,13.48a1,1,0,0,0-1.31.95V31.62A1,1,0,0,0,45,32.58Zm1.31-16.77L55,18.65v15.1L46.31,30.9Z"></path>
      <path d="M56.34,38.92l-3.29-1.07a1,1,0,0,0-.62,1.9l3.29,1.07a1.12,1.12,0,0,0,.31,0,1,1,0,0,0,.31-1.95Z"></path>
      <path d="M50.31,37l-4.69-1.53a1,1,0,0,0-1.27.64A1,1,0,0,0,45,37.32l4.69,1.53a.81.81,0,0,0,.31,0A1,1,0,0,0,50.31,37Z"></path>
      <path d="M56.34,42.63l-3.29-1.07a1,1,0,0,0-.62,1.9l3.29,1.07a.84.84,0,0,0,.31,0,1,1,0,0,0,.95-.69A1,1,0,0,0,56.34,42.63Z"></path>
      <path d="M45,41l4.69,1.53a1.06,1.06,0,0,0,.31,0,1,1,0,0,0,.31-1.95l-4.69-1.54A1,1,0,1,0,45,41Z"></path>
      <path d="M56.34,46.28l-3.29-1.07a1,1,0,0,0-.62,1.9l3.29,1.07a1.12,1.12,0,0,0,.31,0,1,1,0,0,0,.31-1.95Z"></path>
      <path d="M50.31,44.31l-4.69-1.53a1,1,0,0,0-1.27.64A1,1,0,0,0,45,44.68l4.69,1.53a.81.81,0,0,0,.31,0,1,1,0,0,0,.31-1.95Z"></path>
      <path d="M18.65,17,7.92,13.48a1,1,0,0,0-1.31.95V31.62a1,1,0,0,0,.69,1L18,36.07a.81.81,0,0,0,.31,0,1,1,0,0,0,.58-.19,1,1,0,0,0,.42-.81V17.93A1,1,0,0,0,18.65,17ZM17.34,33.75,8.61,30.9V15.81l8.73,2.84Z"></path>
      <path d="M18.64,39.85l-3.26-1.06a1,1,0,0,0-1.31,1V45a1,1,0,0,0,.69,1L18,47a1.15,1.15,0,0,0,.31,0,1,1,0,0,0,.59-.19,1,1,0,0,0,.41-.81V40.8A1,1,0,0,0,18.64,39.85ZM17.33,44.7l-1.26-.42V41.11l1.26.42Z"></path>
      <path d="M12.39,37.81,7.92,36.35a1,1,0,0,0-.9.14,1,1,0,0,0-.41.81v5.28a1,1,0,0,0,.69,1L11.77,45a.81.81,0,0,0,.31.05.94.94,0,0,0,.58-.19,1,1,0,0,0,.42-.81V38.76A1,1,0,0,0,12.39,37.81Zm-1.31,4.85-2.47-.81V38.68l2.47.81Z"></path>
      <path d="M27.1,19.58a1.06,1.06,0,0,0,.31,0l3.29-1.07a1,1,0,1,0-.62-1.9l-3.29,1.07a1,1,0,0,0,.31,1.95Z"></path>
      <path d="M33.14,17.61a.87.87,0,0,0,.31-.05L38.14,16a1,1,0,1,0-.62-1.9l-4.69,1.53a1,1,0,0,0,.31,1.95Z"></path>
      <path d="M31.34,21a1,1,0,0,0-1.26-.65l-3.29,1.08a1,1,0,0,0,.31,2,1.06,1.06,0,0,0,.31-.05L30.7,22.3A1,1,0,0,0,31.34,21Z"></path>
      <path d="M33.14,21.45a1.18,1.18,0,0,0,.31-.05l4.69-1.53a1,1,0,0,0-.62-1.9L32.83,19.5a1,1,0,0,0,.31,1.95Z"></path>
      <path d="M31.34,24.87a1,1,0,0,0-1.26-.64L26.79,25.3a1,1,0,0,0-.64,1.27,1,1,0,0,0,1,.69,1.06,1.06,0,0,0,.31-.05l3.29-1.08A1,1,0,0,0,31.34,24.87Z"></path>
      <path d="M33.14,25.29a1.18,1.18,0,0,0,.31-.05l4.69-1.53a1,1,0,0,0-.62-1.9l-4.69,1.53a1,1,0,0,0,.31,1.95Z"></path>
      <path d="M30.08,28.07l-3.29,1.07a1,1,0,0,0-.64,1.26,1,1,0,0,0,1,.69.81.81,0,0,0,.31-.05L30.7,30a1,1,0,0,0,.64-1.26A1,1,0,0,0,30.08,28.07Z"></path>
      <path d="M33.14,29.13a1.18,1.18,0,0,0,.31-.05l4.69-1.53a1,1,0,0,0-.62-1.91l-4.69,1.54a1,1,0,0,0,.31,1.95Z"></path>
      <path d="M27.41,34.88l3.29-1.07a1,1,0,0,0-.62-1.9L26.79,33a1,1,0,0,0-.64,1.26,1,1,0,0,0,1,.69A.81.81,0,0,0,27.41,34.88Z"></path>
      <path d="M33.45,32.92l4.69-1.53a1,1,0,0,0-.62-1.91L32.83,31a1,1,0,0,0-.64,1.27,1,1,0,0,0,1,.68A1.15,1.15,0,0,0,33.45,32.92Z"></path>
      <path d="M31.28,38a1,1,0,0,0-.89-.14l-3.27,1.06a1,1,0,0,0-.69.95v8.94a1,1,0,0,0,.41.81,1,1,0,0,0,.59.19,1.06,1.06,0,0,0,.31-.05L31,48.7a1,1,0,0,0,.69-1V38.81A1,1,0,0,0,31.28,38ZM29.7,47l-1.27.41V40.6l1.27-.41Z"></path>
      <path d="M38.74,35.57a1,1,0,0,0-.89-.14l-4.47,1.45a1,1,0,0,0-.69.95v8.94a1,1,0,0,0,.41.81,1,1,0,0,0,.59.19,1.12,1.12,0,0,0,.31-.05l4.47-1.45a1,1,0,0,0,.69-1V36.38A1,1,0,0,0,38.74,35.57Zm-1.58,9-2.47.8V38.56l2.47-.81Z"></path>
    </g>
  </symbol>
  <symbol xmlns="http://www.w3.org/2000/svg" viewBox="0 0 64 64" id="functional">
    <g id="Data-2">
      <path d="M60,47.33H57.3V13a1,1,0,0,0-1-1H36.46a11.7,11.7,0,0,0-9.8-5.33,1,1,0,0,0-1,1V12h-2v-.35a1,1,0,0,0-1-1A11.63,11.63,0,0,0,17.23,12H7.7a1,1,0,0,0-1,1V47.33H4a1,1,0,0,0-1,1v4.52a4.44,4.44,0,0,0,4.45,4.44h49.1A4.44,4.44,0,0,0,61,52.85V48.33A1,1,0,0,0,60,47.33ZM27.66,8.76a9.69,9.69,0,0,1,8.63,8.62H27.66Zm-5,14.61H32.3A9.68,9.68,0,1,1,21.68,12.74v9.63A1,1,0,0,0,22.68,23.37ZM14.5,14a11.68,11.68,0,1,0,19.86,8.33,1,1,0,0,0-1-1H23.68V14h2v4.34a1,1,0,0,0,1,1H37.34a1,1,0,0,0,1-1A11.65,11.65,0,0,0,37.5,14H55.3V43.65H8.7V14ZM8.7,45.65H55.3v1.68H42.88a1,1,0,0,0-1,1V50a.6.6,0,0,1-.59.59H22.71a.6.6,0,0,1-.59-.59V48.33a1,1,0,0,0-1-1H8.7ZM59,52.85a2.45,2.45,0,0,1-2.45,2.44H7.45A2.45,2.45,0,0,1,5,52.85V49.33H20.12V50a2.6,2.6,0,0,0,2.59,2.59H41.29A2.6,2.6,0,0,0,43.88,50v-.71H59Z"></path>
      <path d="M42.46,29.4h7.08a3.38,3.38,0,1,0,0-6.75H42.46a3.38,3.38,0,1,0,0,6.75Zm0-4.75h7.08a1.38,1.38,0,1,1,0,2.75H42.46a1.38,1.38,0,1,1,0-2.75Z"></path>
      <path d="M35.08,38.93H49.54a3.38,3.38,0,1,0,0-6.76H35.08a3.38,3.38,0,0,0,0,6.76Zm0-4.76H49.54a1.38,1.38,0,1,1,0,2.76H35.08a1.38,1.38,0,0,1,0-2.76Z"></path>
    </g>
  </symbol>
</svg>