<?xml version="1.0" ?><svg id="Target" viewBox="0 0 64 64" xmlns="http://www.w3.org/2000/svg"><path d="M58.08,29.08h-.64A25.44,25.44,0,0,0,34.92,6.56V5.92a2.92,2.92,0,0,0-5.84,0v.64A25.45,25.45,0,0,0,6.56,29.08H5.92a2.92,2.92,0,0,0,0,5.84h.64A25.45,25.45,0,0,0,29.08,57.44v.64a2.92,2.92,0,0,0,5.84,0v-.64A25.45,25.45,0,0,0,57.44,34.92h.64a2.92,2.92,0,0,0,0-5.84Zm-2.63,0H54.08A22.28,22.28,0,0,0,34.92,9.92V8.55A23.47,23.47,0,0,1,55.45,29.08Zm-4.69,5.84H52A20.24,20.24,0,0,1,34.92,52V50.76a2.92,2.92,0,0,0-5.84,0V52A20.24,20.24,0,0,1,12,34.92h1.28a2.92,2.92,0,0,0,0-5.84H12A20.24,20.24,0,0,1,29.08,12v1.28a2.92,2.92,0,0,0,5.84,0V12A20.24,20.24,0,0,1,52,29.08H50.76a2.92,2.92,0,1,0,0,5.84ZM32,5a.92.92,0,0,1,.92.92V7.43h0v3.37h0v2.42a.92.92,0,1,1-1.84,0V10.82h0V7.44h0V5.92A.91.91,0,0,1,32,5ZM29.08,8.55V9.92A22.28,22.28,0,0,0,9.92,29.08H8.55A23.47,23.47,0,0,1,29.08,8.55ZM5,32a.92.92,0,0,1,.92-.92h7.32a.92.92,0,0,1,0,1.84H5.92A.92.92,0,0,1,5,32Zm3.55,2.92H9.92A22.28,22.28,0,0,0,29.08,54.08v1.37A23.49,23.49,0,0,1,8.55,34.92ZM32,59a.91.91,0,0,1-.92-.92V56.57h0V53.19h0V50.76a.92.92,0,1,1,1.84,0v2.42h0v3.38h0v1.52A.92.92,0,0,1,32,59Zm2.92-3.55V54.08A22.28,22.28,0,0,0,54.08,34.92h1.37A23.48,23.48,0,0,1,34.92,55.45ZM58.08,32.92H50.76a.92.92,0,0,1,0-1.84h7.32a.92.92,0,0,1,0,1.84Z"/><path d="M32,17.76A14.24,14.24,0,1,0,46.24,32,14.26,14.26,0,0,0,32,17.76Zm0,2A12.21,12.21,0,0,1,42.33,38.53a12.32,12.32,0,0,0-20.66,0A12.21,12.21,0,0,1,32,19.76Zm0,24.48a12.19,12.19,0,0,1-9-4,10.27,10.27,0,0,1,18,0A12.19,12.19,0,0,1,32,44.24Z"/><path d="M32,31.08a4.93,4.93,0,1,0-4.92-4.92A4.93,4.93,0,0,0,32,31.08Zm0-7.85a2.93,2.93,0,1,1-2.92,2.93A2.93,2.93,0,0,1,32,23.23Z"/></svg>