<?xml version="1.0" ?><svg viewBox="0 0 64 64" xmlns="http://www.w3.org/2000/svg"><g data-name="Target" id="Target-2"><path d="M60,8.59a1,1,0,0,0,0-2H57.41V4a1,1,0,0,0-2,0V7.18l-.8.8V4a1,1,0,0,0-2,0v6l-.84.83a29,29,0,1,0,1.42,1.42l.84-.84h6a1,1,0,0,0,0-2H56l.79-.8ZM59,32a27,27,0,1,1-8.64-19.77l-3,3a22.75,22.75,0,1,0,1.42,1.42l3-3A26.91,26.91,0,0,1,59,32ZM34.74,32A2.74,2.74,0,1,1,32,29.26a2.63,2.63,0,0,1,1.09.24l-1.8,1.79a1,1,0,0,0,1.42,1.42l1.8-1.8A2.8,2.8,0,0,1,34.74,32Zm-.18-4A4.78,4.78,0,1,0,36,29.44l2.63-2.63a8.44,8.44,0,1,1-1.41-1.41ZM38.62,24A10.42,10.42,0,1,0,40,25.38l3-3A14.61,14.61,0,1,1,41.64,21Zm4.43-4.43A16.74,16.74,0,1,0,44.46,21l2.87-2.86a20.8,20.8,0,1,1-1.42-1.42Z"/></g></svg>