<?xml version="1.0" ?><svg viewBox="0 0 64 64" xmlns="http://www.w3.org/2000/svg"><g data-name="Automated Teller Machine" id="Automated_Teller_Machine"><path d="M58.56,14.27H39.11V4a1,1,0,0,0-1-1H5.44a1,1,0,0,0-1,1V50.67a1,1,0,0,0,1,1H24.55V60a1,1,0,0,0,1,1h33a1,1,0,0,0,1-1V15.27A1,1,0,0,0,58.56,14.27Zm-21.45,0H31.47V5h5.64ZM6.44,5h23V49.67h-23ZM26.55,51.67h3.92a1,1,0,0,0,1-1h0V16.27h1.82V59H26.55ZM35.29,59V16.27h1.82V59Zm22.27,0H39.11V16.27H57.56Z"/><path d="M51.35,37.64a4.08,4.08,0,0,0-4.07,4.07V53.9a4.07,4.07,0,0,0,8.14,0V41.71A4.07,4.07,0,0,0,51.35,37.64ZM53.42,53.9a2.07,2.07,0,0,1-4.14,0V41.71a2.07,2.07,0,0,1,4.14,0Z"/><path d="M46.55,22.59h.26a2.64,2.64,0,0,0,5.09-1,.64.64,0,0,1,.64-.64.63.63,0,0,1,.63.63h0v0A.58.58,0,0,1,53,22a1,1,0,0,0,1.42,1.42,2.63,2.63,0,0,0,.57-.87h.26a1,1,0,0,0,0-2H55a2.64,2.64,0,0,0-5.08,1,.64.64,0,0,1-1.28,0,.63.63,0,0,1,.18-.45,1,1,0,0,0,0-1.42,1,1,0,0,0-1.41,0,2.61,2.61,0,0,0-.58.86h-.26a1,1,0,0,0,0,2Z"/><path d="M8.76,20.67H26.84a1,1,0,0,0,1-1V9.55a1,1,0,0,0-1-1H8.76a1,1,0,0,0-1,1V19.67A1,1,0,0,0,8.76,20.67Zm1-10.12H25.84v8.12H9.76Z"/><path d="M26.84,48a1,1,0,0,0,1-1V27a1,1,0,0,0-1-1H8.76a1,1,0,0,0-1,1V47a1,1,0,0,0,1,1ZM9.76,34.59h3.66v4.76H9.76Zm5.66,0h4.76v4.76H15.42Zm0-2V28h4.76v4.62Zm10.42,6.76H22.18V34.59h3.66Zm-5.66,2V46H15.42V41.35Zm2,4.61V41.35h3.66V46Zm3.66-13.37H22.18V28h3.66ZM13.42,28v4.62H9.76V28ZM9.76,41.35h3.66V46H9.76Z"/></g></svg>